<svg width="16" height="16" viewBox="0 0 16 16" fill="none" xmlns="http://www.w3.org/2000/svg">
<path d="M12.0213 11.078L14.8767 13.9326L13.9333 14.876L11.0787 12.0206C10.0165 12.8721 8.69532 13.3352 7.33398 13.3333C4.02198 13.3333 1.33398 10.6453 1.33398 7.33331C1.33398 4.02131 4.02198 1.33331 7.33398 1.33331C10.646 1.33331 13.334 4.02131 13.334 7.33331C13.3359 8.69465 12.8728 10.0158 12.0213 11.078ZM10.684 10.5833C11.5301 9.71324 12.0026 8.54693 12.0007 7.33331C12.0007 4.75465 9.91198 2.66665 7.33398 2.66665C4.75532 2.66665 2.66732 4.75465 2.66732 7.33331C2.66732 9.91131 4.75532 12 7.33398 12C8.5476 12.0019 9.71391 11.5294 10.584 10.6833L10.684 10.5833Z" fill="#7F857E"/>
</svg>
