<svg width="13" height="13" viewBox="0 0 13 13" fill="none" xmlns="http://www.w3.org/2000/svg">
<path d="M7.33332 1.25C7.33332 0.697715 6.8856 0.25 6.33332 0.25C5.78103 0.25 5.33332 0.697715 5.33332 1.25L7.33332 1.25ZM5.33331 11.75C5.33331 12.3023 5.78103 12.75 6.33331 12.75C6.8856 12.75 7.33331 12.3023 7.33331 11.75H5.33331ZM11.5833 7.5C12.1356 7.5 12.5833 7.05228 12.5833 6.5C12.5833 5.94771 12.1356 5.5 11.5833 5.5V7.5ZM1.08331 5.5C0.531028 5.5 0.083313 5.94771 0.083313 6.5C0.083313 7.05228 0.531028 7.5 1.08331 7.5V5.5ZM5.33332 1.25L5.33331 6.5L7.33331 6.5L7.33332 1.25L5.33332 1.25ZM5.33331 6.5L5.33331 11.75H7.33331L7.33331 6.5L5.33331 6.5ZM11.5833 5.5L6.33331 5.5L6.33331 7.5L11.5833 7.5V5.5ZM6.33331 5.5H1.08331V7.5H6.33331V5.5Z" fill="#1F1F1F"/>
</svg>
