<svg width="21" height="20" viewBox="0 0 21 20" fill="none" xmlns="http://www.w3.org/2000/svg">
<path fill-rule="evenodd" clip-rule="evenodd" d="M2.15333 1.40333C0.75 2.80667 0.75 5.066 0.75 9.58333V10.4167C0.75 14.9333 0.75 17.1933 2.15333 18.5967C3.55667 20 5.816 20 10.3333 20H11.1667C15.6833 20 17.9433 20 19.3467 18.5967C20.75 17.1933 20.75 14.934 20.75 10.4167V9.58333C20.75 5.06667 20.75 2.80667 19.3467 1.40333C17.9433 0 15.684 0 11.1667 0H10.3333C5.81667 0 3.55667 0 2.15333 1.40333ZM4.70866 6.25H6.16666C6.53933 6.25 6.67933 6.41333 6.81933 6.81733C7.53266 8.89467 8.73533 10.7107 9.22933 10.7107C9.41533 10.7107 9.49999 10.6253 9.49999 10.154V8.00667C9.4666 7.39538 9.25303 7.13096 9.09485 6.93511C8.9972 6.81421 8.92066 6.71944 8.92066 6.58533C8.92066 6.422 9.05999 6.25 9.29133 6.25H11.5833C11.8927 6.25 12 6.41533 12 6.786V9.67533C12 9.984 12.134 10.0927 12.2267 10.0927C12.412 10.0927 12.5667 9.984 12.9067 9.644C13.9573 8.47 14.6987 6.66267 14.6987 6.66267C14.7913 6.446 14.9627 6.25 15.3333 6.25H16.7913C17.2327 6.25 17.326 6.47733 17.2327 6.786C17.0473 7.636 15.2707 10.1387 15.2707 10.1387C15.116 10.386 15.054 10.5093 15.2707 10.7873C15.3471 10.8944 15.5102 11.0543 15.6967 11.2371C15.8875 11.4241 16.1027 11.6351 16.2747 11.838C16.9013 12.5427 17.3733 13.1373 17.5047 13.5467C17.6253 13.958 17.4167 14.1667 17 14.1667H15.5413C15.1508 14.1667 14.9543 13.948 14.5294 13.475C14.3494 13.2746 14.1283 13.0285 13.834 12.734C12.968 11.9 12.598 11.792 12.3813 11.792C12.088 11.792 12 11.8753 12 12.292V13.6C12 13.958 11.8853 14.1667 10.958 14.1667C9.41333 14.1667 7.71533 13.2287 6.51066 11.498C4.70266 8.96467 4.20866 7.04867 4.20866 6.66267C4.20866 6.446 4.29199 6.25 4.70866 6.25Z" fill="#1F1F1F"/>
</svg>
