<svg width="25" height="24" viewBox="0 0 25 24" fill="none" xmlns="http://www.w3.org/2000/svg">
<path d="M22.293 6.498C22.75 8.28 22.75 12 22.75 12C22.75 12 22.75 15.72 22.293 17.502C22.039 18.487 21.296 19.262 20.355 19.524C18.646 20 12.75 20 12.75 20C12.75 20 6.857 20 5.145 19.524C4.2 19.258 3.458 18.484 3.207 17.502C2.75 15.72 2.75 12 2.75 12C2.75 12 2.75 8.28 3.207 6.498C3.461 5.513 4.204 4.738 5.145 4.476C6.857 4 12.75 4 12.75 4C12.75 4 18.646 4 20.355 4.476C21.3 4.742 22.042 5.516 22.293 6.498ZM10.75 15.5L16.75 12L10.75 8.5V15.5Z" fill="#1F1F1F"/>
</svg>
