<svg width="32" height="32" viewBox="0 0 32 32" fill="none" xmlns="http://www.w3.org/2000/svg">
<path d="M30.0003 17V25C30.0003 25.2652 29.8949 25.5196 29.7074 25.7071C29.5199 25.8947 29.2655 26 29.0003 26H21.0003C20.8025 26 20.6092 25.9413 20.4448 25.8315C20.2803 25.7216 20.1522 25.5654 20.0765 25.3827C20.0008 25.2 19.981 24.9989 20.0195 24.805C20.0581 24.611 20.1533 24.4328 20.2932 24.2929L23.5861 21L17.0003 14.4143L12.7075 18.7071C12.5199 18.8946 12.2655 19 12.0003 19C11.7351 19 11.4807 18.8946 11.2932 18.7071L2.29316 9.70712C2.2003 9.61425 2.12664 9.50401 2.07639 9.38268C2.02614 9.26135 2.00028 9.13131 2.00028 8.99998C2.00029 8.86866 2.02616 8.73862 2.07642 8.61729C2.12668 8.49597 2.20035 8.38573 2.29321 8.29287C2.38608 8.20001 2.49632 8.12636 2.61765 8.07611C2.73898 8.02586 2.86902 7.99999 3.00035 8C3.13167 8.00001 3.26171 8.02588 3.38304 8.07614C3.50436 8.1264 3.6146 8.20006 3.70746 8.29293L12.0003 16.5858L16.2932 12.2929C16.4807 12.1054 16.7351 12 17.0003 12C17.2655 12 17.5199 12.1054 17.7075 12.2929L25.0003 19.5858L28.2932 16.2929C28.433 16.1531 28.6112 16.0578 28.8052 16.0192C28.9992 15.9806 29.2002 16.0004 29.383 16.0761C29.5657 16.1518 29.7219 16.28 29.8318 16.4444C29.9417 16.6089 30.0003 16.8022 30.0003 17V17Z" fill="#1F1F1F"/>
</svg>
