<svg width="232" height="40" viewBox="0 0 232 40" fill="none" xmlns="http://www.w3.org/2000/svg">
<path d="M53.1057 11.4306H60.6754C62.4024 11.3993 64.1127 11.7619 65.667 12.4886C67.0896 13.1406 68.2749 14.1916 69.0679 15.504C69.8939 16.8687 70.3292 18.4205 70.3292 20.0007C70.3292 21.5809 69.8939 23.1327 69.0679 24.4974C68.2602 25.7984 67.079 26.8458 65.667 27.5128C64.1086 28.2282 62.4012 28.5901 60.6754 28.5708H53.1057V11.4306ZM60.6206 25.8199C61.7922 25.8284 62.952 25.5939 64.0214 25.1322C64.9564 24.6609 65.7356 23.9461 66.2704 23.069C66.8119 22.1117 67.0949 21.0383 67.0932 19.9478C67.1146 18.855 66.8304 17.7768 66.2704 16.8266C65.7513 15.9376 64.968 15.2189 64.0214 14.7634C62.952 14.3017 61.7922 14.0672 60.6206 14.0757H56.4517V25.767L60.6206 25.8199Z" fill="#005840"/>
<path d="M109.082 14.1355H103.482V28.5716H100.318V14.1355H94.7291V11.4287H109.071V14.1355H109.082Z" fill="#005840"/>
<path d="M127.509 18.6468C128.633 19.549 129.168 20.982 129.168 22.7334C129.213 23.5477 129.072 24.3615 128.757 25.1147C128.442 25.868 127.961 26.5415 127.348 27.0855C126.117 28.0939 124.404 28.5716 122.21 28.5716H114.823V11.4287H117.981V17.2138H122.745C124.452 17.1344 126.134 17.6405 127.509 18.6468ZM124.939 25.2279C125.287 24.903 125.558 24.5065 125.734 24.0663C125.909 23.6261 125.985 23.1529 125.956 22.6804C125.956 20.6105 124.618 19.549 122.103 19.549H117.928V25.9656H122.049C122.556 26.0589 123.077 26.0412 123.577 25.9138C124.076 25.7863 124.541 25.5523 124.939 25.2279Z" fill="#005840"/>
<path d="M156.698 27.4829C155.309 26.7728 154.157 25.6994 153.374 24.3864C152.555 23.0597 152.129 21.5428 152.141 19.9996C152.129 18.4727 152.547 16.9711 153.349 15.6537C154.151 14.3364 155.308 13.2523 156.698 12.5163C158.163 11.7599 159.808 11.3862 161.47 11.4326C163.125 11.4425 164.757 11.813 166.242 12.5163C167.631 13.2265 168.783 14.2999 169.566 15.6129C170.385 16.9396 170.811 18.4565 170.799 19.9996C170.811 21.5266 170.394 23.0282 169.591 24.3456C168.789 25.6629 167.632 26.7469 166.242 27.4829C164.777 28.2394 163.132 28.6131 161.47 28.5667C159.808 28.6192 158.161 28.2451 156.698 27.4829ZM164.58 25.1089C165.482 24.6281 166.225 23.9127 166.724 23.0446C167.247 22.1083 167.524 21.0627 167.529 19.9996C167.537 18.935 167.26 17.8863 166.724 16.9547C166.225 16.0866 165.482 15.3712 164.58 14.8904C163.607 14.3869 162.521 14.1211 161.417 14.1162C160.311 14.1155 159.224 14.3817 158.253 14.8904C157.351 15.3712 156.608 16.0866 156.109 16.9547C155.586 17.891 155.309 18.9366 155.304 19.9996C155.296 21.0643 155.573 22.113 156.109 23.0446C156.608 23.9127 157.351 24.6281 158.253 25.1089C159.224 25.6171 160.311 25.8833 161.417 25.8833C162.522 25.8833 163.609 25.6171 164.58 25.1089Z" fill="#005840"/>
<path d="M188.617 21.1967C189.195 21.9338 189.492 22.8562 189.455 23.7965C189.469 24.4674 189.33 25.1326 189.048 25.74C188.767 26.3474 188.35 26.8807 187.832 27.2982C186.732 28.0941 185.161 28.5716 183.118 28.5716H175.105V11.4343H182.647C184.204 11.3767 185.747 11.7627 187.098 12.5485C187.604 12.9145 188.012 13.4017 188.286 13.9664C188.56 14.5312 188.692 15.156 188.67 15.785C188.712 16.6112 188.491 17.4293 188.041 18.1194C187.578 18.7769 186.943 19.2912 186.208 19.605C187.14 19.903 187.973 20.4534 188.617 21.1967ZM178.195 18.8092H182.385C183.432 18.8092 184.166 18.65 184.689 18.1725C184.961 17.9648 185.176 17.6899 185.314 17.3742C185.452 17.0584 185.507 16.7122 185.475 16.3686C185.49 16.0192 185.427 15.671 185.291 15.3496C185.155 15.0281 184.949 14.7418 184.689 14.5116C184.01 14.0517 183.201 13.8282 182.385 13.8749H178.195V18.8092ZM186.365 23.5843C186.365 21.9395 185.266 21.0375 183.066 21.0375H178.195V26.131H183.013C185.213 26.184 186.365 25.2821 186.365 23.5843Z" fill="#005840"/>
<path d="M198.322 27.4875C196.933 26.7771 195.78 25.7034 194.998 24.3901C194.179 23.063 193.752 21.5456 193.764 20.0021C193.753 18.4747 194.17 16.9726 194.972 15.6549C195.774 14.3372 196.932 13.2529 198.322 12.5167C199.787 11.76 201.432 11.3862 203.093 11.4326C204.749 11.4425 206.38 11.8131 207.865 12.5167C209.254 13.227 210.406 14.3007 211.189 15.6141C212.008 16.9411 212.434 18.4585 212.422 20.0021C212.441 21.5465 212.014 23.0656 211.189 24.3901C210.376 25.6806 209.231 26.7474 207.865 27.4875C206.383 28.2004 204.75 28.5716 203.093 28.5716C201.437 28.5716 199.803 28.2004 198.322 27.4875ZM206.203 25.1128C207.105 24.6318 207.848 23.9163 208.348 23.0479C208.871 22.1113 209.147 21.0654 209.152 20.0021C209.16 18.9371 208.883 17.8881 208.348 16.9563C207.848 16.0879 207.105 15.3723 206.203 14.8913C205.23 14.3878 204.144 14.1219 203.04 14.117C201.935 14.1163 200.847 14.3825 199.876 14.8913C198.975 15.3723 198.231 16.0879 197.732 16.9563C197.209 17.8928 196.933 18.9387 196.928 20.0021C196.919 21.067 197.196 22.116 197.732 23.0479C198.231 23.9163 198.975 24.6318 199.876 25.1128C200.849 25.6164 201.935 25.8823 203.04 25.8872C204.149 25.8905 205.24 25.6242 206.214 25.1128H206.203Z" fill="#005840"/>
<path d="M82.0297 11.4319C80.6967 11.3956 79.374 11.6684 78.17 12.2279C77.1313 12.7101 76.2339 13.4401 75.5606 14.3504C74.9318 15.3557 74.6111 16.5158 74.6365 17.6935C74.6233 18.9031 74.9424 20.0941 75.5606 21.1426C76.2535 22.1082 77.2437 22.8331 78.3874 23.2121L74.6365 28.5185H78.0613L81.9209 22.7876V21.1426H81.7579C80.7156 21.2052 79.6872 20.8832 78.8767 20.2405C78.5321 19.8987 78.2627 19.4918 78.085 19.0446C77.9074 18.5975 77.8253 18.1196 77.8438 17.6404C77.8093 17.1547 77.8894 16.6678 78.0779 16.217C78.2663 15.7662 78.5582 15.3637 78.931 15.0403C79.6377 14.4035 80.6706 14.1382 82.0297 14.1382H85.7806V28.5716H88.988V11.485L82.0297 11.4319Z" fill="#005840"/>
<path d="M136.353 11.4287H133.482V28.5716H136.353V11.4287Z" fill="#005840"/>
<path d="M142.332 19.7082L148.993 11.4287H145.163L139.223 18.8591V20.9289L145.163 28.5716H149.27L142.332 19.7082Z" fill="#005840"/>
<path d="M37.3824 9.58572C35.4991 6.53989 32.7772 4.0903 29.5368 2.52504C25.9321 0.79619 21.9673 -0.067425 17.9632 0.00410777H6.70951L10.3149 4.79227H18.3365C21.3735 4.72845 24.383 5.37484 27.1208 6.679C29.5635 7.90706 31.5997 9.80358 32.9876 12.1436C34.3378 14.5459 35.0465 17.25 35.0465 19.9997C35.0465 22.7494 34.3378 25.4535 32.9876 27.8558C31.5954 30.1635 29.5574 32.0214 27.1208 33.2041C24.383 34.5083 21.3735 35.1547 18.3365 35.0909H5.12547V4.79227L1.55738 0.00410777H0V39.9953H17.9632C21.97 40.0718 25.9386 39.2118 29.5475 37.485C32.7886 35.9233 35.511 33.4751 37.393 30.4296C39.2247 27.2541 40.1881 23.6599 40.1881 20.0023C40.1881 16.3448 39.2247 12.7506 37.393 9.57515L37.3824 9.58572Z" fill="#005840"/>
</svg>
