<svg width="232" height="41" viewBox="0 0 232 41" fill="none" xmlns="http://www.w3.org/2000/svg">
<path d="M53.1057 11.9304H60.6754C62.4024 11.8992 64.1127 12.2617 65.667 12.9885C67.0896 13.6405 68.2749 14.6915 69.0679 16.0039C69.8939 17.3686 70.3292 18.9204 70.3292 20.5006C70.3292 22.0808 69.8939 23.6326 69.0679 24.9973C68.2603 26.2982 67.079 27.3456 65.667 28.0127C64.1086 28.728 62.4012 29.0899 60.6754 29.0707H53.1057V11.9304ZM60.6206 26.3198C61.7922 26.3283 62.952 26.0938 64.0214 25.6321C64.9565 25.1608 65.7356 24.446 66.2704 23.5689C66.812 22.6116 67.0949 21.5382 67.0932 20.4477C67.1146 19.3549 66.8304 18.2767 66.2704 17.3265C65.7514 16.4374 64.968 15.7188 64.0214 15.2633C62.952 14.8016 61.7922 14.567 60.6206 14.5756H56.4518V26.2669L60.6206 26.3198Z" fill="#434C44"/>
<path d="M109.082 14.6354H103.482V29.0714H100.318V14.6354H94.7291V11.9286H109.071V14.6354H109.082Z" fill="#434C44"/>
<path d="M127.509 19.1466C128.633 20.0489 129.168 21.4819 129.168 23.2333C129.213 24.0476 129.072 24.8613 128.757 25.6146C128.442 26.3679 127.961 27.0414 127.348 27.5854C126.117 28.5938 124.404 29.0714 122.21 29.0714H114.823V11.9286H117.981V17.7136H122.745C124.452 17.6343 126.134 18.1404 127.509 19.1466ZM124.939 25.7278C125.287 25.4029 125.558 25.0064 125.734 24.5662C125.909 24.1259 125.985 23.6528 125.956 23.1802C125.956 21.1104 124.618 20.0489 122.103 20.0489H117.928V26.4655H122.049C122.556 26.5588 123.077 26.5411 123.577 26.4137C124.076 26.2862 124.541 26.0521 124.939 25.7278Z" fill="#434C44"/>
<path d="M156.698 27.9828C155.309 27.2727 154.157 26.1993 153.374 24.8863C152.555 23.5596 152.129 22.0426 152.141 20.4995C152.129 18.9726 152.547 17.4709 153.349 16.1536C154.151 14.8363 155.308 13.7522 156.698 13.0162C158.163 12.2598 159.808 11.8861 161.47 11.9324C163.125 11.9424 164.757 12.3129 166.242 13.0162C167.631 13.7264 168.783 14.7998 169.566 16.1128C170.385 17.4395 170.811 18.9564 170.799 20.4995C170.811 22.0265 170.394 23.5281 169.591 24.8454C168.789 26.1628 167.632 27.2468 166.242 27.9828C164.777 28.7392 163.132 29.1129 161.47 29.0666C159.808 29.1191 158.161 28.745 156.698 27.9828ZM164.58 25.6088C165.482 25.1279 166.225 24.4126 166.724 23.5444C167.247 22.6081 167.524 21.5626 167.529 20.4995C167.537 19.4349 167.26 18.3861 166.724 17.4546C166.225 16.5865 165.482 15.8711 164.58 15.3902C163.607 14.8868 162.521 14.621 161.417 14.6161C160.311 14.6154 159.224 14.8815 158.253 15.3902C157.351 15.8711 156.608 16.5865 156.109 17.4546C155.586 18.3909 155.309 19.4365 155.304 20.4995C155.296 21.5642 155.573 22.6129 156.109 23.5444C156.608 24.4126 157.351 25.1279 158.253 25.6088C159.224 26.117 160.311 26.3832 161.417 26.3832C162.522 26.3832 163.609 26.117 164.58 25.6088Z" fill="#434C44"/>
<path d="M188.617 21.6966C189.195 22.4337 189.492 23.3561 189.455 24.2964C189.469 24.9673 189.33 25.6324 189.048 26.2399C188.767 26.8473 188.35 27.3806 187.832 27.7981C186.732 28.5939 185.161 29.0714 183.118 29.0714H175.105V11.9342H182.647C184.204 11.8765 185.747 12.2625 187.098 13.0484C187.604 13.4144 188.012 13.9016 188.286 14.4663C188.56 15.0311 188.692 15.6559 188.67 16.2848C188.712 17.111 188.491 17.9291 188.041 18.6193C187.578 19.2768 186.943 19.7911 186.208 20.1049C187.14 20.4029 187.973 20.9533 188.617 21.6966ZM178.195 19.3091H182.385C183.432 19.3091 184.166 19.1499 184.689 18.6724C184.961 18.4646 185.176 18.1898 185.314 17.874C185.452 17.5583 185.507 17.2121 185.475 16.8685C185.49 16.5191 185.427 16.1709 185.291 15.8494C185.155 15.528 184.949 15.2417 184.689 15.0115C184.01 14.5516 183.201 14.3281 182.385 14.3748H178.195V19.3091ZM186.365 24.0841C186.365 22.4394 185.266 21.5374 183.066 21.5374H178.195V26.6308H183.013C185.213 26.6839 186.365 25.782 186.365 24.0841Z" fill="#434C44"/>
<path d="M198.322 27.9874C196.933 27.277 195.78 26.2033 194.998 24.89C194.179 23.5629 193.752 22.0455 193.764 20.502C193.753 18.9746 194.17 17.4725 194.972 16.1548C195.774 14.8371 196.932 13.7527 198.322 13.0165C199.787 12.2599 201.432 11.8861 203.093 11.9324C204.749 11.9424 206.38 12.313 207.865 13.0165C209.254 13.7269 210.406 14.8006 211.189 16.1139C212.008 17.441 212.434 18.9584 212.422 20.502C212.441 22.0464 212.014 23.5655 211.189 24.89C210.376 26.1805 209.231 27.2473 207.865 27.9874C206.383 28.7003 204.75 29.0714 203.093 29.0714C201.437 29.0714 199.803 28.7003 198.322 27.9874ZM206.203 25.6127C207.105 25.1317 207.848 24.4161 208.348 23.5477C208.871 22.6112 209.147 21.5653 209.152 20.502C209.16 19.437 208.883 18.388 208.348 17.4562C207.848 16.5878 207.105 15.8722 206.203 15.3912C205.23 14.8876 204.144 14.6217 203.04 14.6169C201.935 14.6161 200.847 14.8824 199.876 15.3912C198.975 15.8722 198.231 16.5878 197.732 17.4562C197.209 18.3927 196.933 19.4386 196.928 20.502C196.919 21.5669 197.196 22.6159 197.732 23.5477C198.231 24.4161 198.975 25.1317 199.876 25.6127C200.849 26.1163 201.935 26.3822 203.04 26.387C204.149 26.3904 205.24 26.124 206.214 25.6127H206.203Z" fill="#434C44"/>
<path d="M82.0297 11.9318C80.6967 11.8955 79.374 12.1682 78.17 12.7278C77.1313 13.21 76.2339 13.94 75.5606 14.8503C74.9318 15.8556 74.6111 17.0157 74.6365 18.1933C74.6233 19.403 74.9424 20.594 75.5606 21.6425C76.2535 22.6081 77.2437 23.333 78.3874 23.712L74.6365 29.0184H78.0613L81.9209 23.2875V21.6425H81.7579C80.7156 21.7051 79.6872 21.3831 78.8767 20.7404C78.5321 20.3986 78.2627 19.9916 78.085 19.5445C77.9074 19.0974 77.8253 18.6195 77.8438 18.1403C77.8093 17.6546 77.8894 17.1676 78.0779 16.7169C78.2663 16.2661 78.5582 15.8636 78.931 15.5402C79.6377 14.9034 80.6706 14.6381 82.0297 14.6381H85.7806V29.0714H88.988V11.9849L82.0297 11.9318Z" fill="#434C44"/>
<path d="M136.353 11.9286H133.482V29.0714H136.353V11.9286Z" fill="#434C44"/>
<path d="M142.332 20.2081L148.993 11.9286H145.163L139.223 19.3589V21.4288L145.163 29.0714H149.27L142.332 20.2081Z" fill="#434C44"/>
<path d="M37.3824 10.0857C35.4991 7.03989 32.7772 4.5903 29.5368 3.02504C25.9321 1.29619 21.9673 0.432575 17.9632 0.504108H6.70951L10.3149 5.29227H18.3365C21.3735 5.22845 24.383 5.87484 27.1208 7.179C29.5635 8.40706 31.5997 10.3036 32.9876 12.6436C34.3378 15.0459 35.0465 17.75 35.0465 20.4997C35.0465 23.2494 34.3378 25.9535 32.9876 28.3558C31.5954 30.6635 29.5574 32.5214 27.1208 33.7041C24.383 35.0083 21.3735 35.6547 18.3365 35.5909H5.12547V5.29227L1.55738 0.504108H0V40.4953H17.9632C21.97 40.5718 25.9386 39.7118 29.5475 37.985C32.7886 36.4233 35.511 33.9751 37.393 30.9296C39.2247 27.7541 40.1881 24.1599 40.1881 20.5023C40.1881 16.8448 39.2247 13.2506 37.393 10.0752L37.3824 10.0857Z" fill="#434C44"/>
</svg>
