<svg width="16" height="17" viewBox="0 0 16 17" fill="none" xmlns="http://www.w3.org/2000/svg">
<path d="M12.0213 11.578L14.8766 14.4327L13.9333 15.376L11.0786 12.5207C10.0164 13.3722 8.69526 13.8353 7.33392 13.8334C4.02192 13.8334 1.33392 11.1454 1.33392 7.83337C1.33392 4.52137 4.02192 1.83337 7.33392 1.83337C10.6459 1.83337 13.3339 4.52137 13.3339 7.83337C13.3359 9.19471 12.8727 10.5159 12.0213 11.578ZM10.6839 11.0834C11.53 10.2133 12.0025 9.04699 12.0006 7.83337C12.0006 5.25471 9.91192 3.16671 7.33392 3.16671C4.75526 3.16671 2.66726 5.25471 2.66726 7.83337C2.66726 10.4114 4.75526 12.5 7.33392 12.5C8.54754 12.502 9.71385 12.0294 10.5839 11.1834L10.6839 11.0834Z" fill="#7F857E"/>
</svg>
