<svg width="369" height="40" viewBox="0 0 369 40" fill="none" xmlns="http://www.w3.org/2000/svg">
<g clip-path="url(#clip0_401_18578)">
<path d="M53.106 11.4304H60.6756C62.4027 11.3992 64.113 11.7617 65.6672 12.4884C67.0898 13.1404 68.2751 14.1914 69.0681 15.5039C69.8942 16.8685 70.3294 18.4203 70.3294 20.0005C70.3294 21.5807 69.8942 23.1325 69.0681 24.4972C68.2605 25.7982 67.0792 26.8456 65.6672 27.5126C64.1089 28.228 62.4014 28.5899 60.6756 28.5707H53.106V11.4304ZM60.6208 25.8197C61.7924 25.8283 62.9523 25.5937 64.0217 25.132C64.9567 24.6607 65.7359 23.9459 66.2706 23.0688C66.8122 22.1115 67.0951 21.0381 67.0934 19.9476C67.1149 18.8548 66.8306 17.7766 66.2706 16.8264C65.7516 15.9374 64.9682 15.2188 64.0217 14.7632C62.9523 14.3015 61.7924 14.067 60.6208 14.0755H56.452V25.7668L60.6208 25.8197V25.8197Z" fill="#005840"/>
<path d="M109.082 14.1353H103.482V28.5714H100.318V14.1353H94.729V11.4285H109.071V14.1353H109.082Z" fill="#005840"/>
<path d="M127.509 18.6466C128.633 19.5488 129.168 20.9818 129.168 22.7333C129.213 23.5475 129.072 24.3613 128.757 25.1145C128.442 25.8678 127.961 26.5413 127.348 27.0853C126.117 28.0937 124.404 28.5714 122.21 28.5714H114.823V11.4285H117.981V17.2136H122.745C124.452 17.1343 126.134 17.6403 127.509 18.6466V18.6466ZM124.94 25.2277C125.287 24.9029 125.558 24.5063 125.734 24.0661C125.909 23.6259 125.986 23.1528 125.957 22.6802C125.957 20.6103 124.618 19.5488 122.103 19.5488H117.928V25.9655H122.049C122.556 26.0587 123.077 26.041 123.577 25.9136C124.076 25.7862 124.541 25.5521 124.94 25.2277V25.2277Z" fill="#005840"/>
<path d="M156.698 27.4827C155.309 26.7726 154.157 25.6992 153.374 24.3862C152.555 23.0595 152.129 21.5426 152.141 19.9995C152.129 18.4725 152.546 16.9709 153.349 15.6535C154.151 14.3362 155.308 13.2522 156.698 12.5162C158.163 11.7597 159.808 11.386 161.47 11.4324C163.125 11.4423 164.757 11.8128 166.242 12.5162C167.631 13.2263 168.783 14.2997 169.566 15.6127C170.385 16.9394 170.811 18.4563 170.799 19.9995C170.811 21.5264 170.394 23.028 169.591 24.3454C168.789 25.6627 167.632 26.7467 166.242 27.4827C164.777 28.2392 163.132 28.6129 161.47 28.5665C159.808 28.619 158.161 28.2449 156.698 27.4827ZM164.58 25.1087C165.482 24.6279 166.225 23.9125 166.724 23.0444C167.247 22.1081 167.524 21.0625 167.529 19.9995C167.537 18.9348 167.26 17.8861 166.724 16.9545C166.225 16.0864 165.482 15.371 164.58 14.8902C163.607 14.3867 162.521 14.1209 161.416 14.116C160.311 14.1153 159.224 14.3815 158.253 14.8902C157.351 15.371 156.608 16.0864 156.108 16.9545C155.585 17.8908 155.309 18.9364 155.304 19.9995C155.296 21.0641 155.573 22.1128 156.108 23.0444C156.608 23.9125 157.351 24.6279 158.253 25.1087C159.224 25.6169 160.311 25.8831 161.416 25.8831C162.521 25.8831 163.609 25.6169 164.58 25.1087V25.1087Z" fill="#005840"/>
<path d="M188.617 21.1965C189.195 21.9336 189.492 22.8561 189.455 23.7963C189.469 24.4672 189.33 25.1324 189.048 25.7398C188.767 26.3472 188.35 26.8805 187.832 27.298C186.732 28.0939 185.161 28.5714 183.118 28.5714H175.105V11.4342H182.647C184.205 11.3765 185.747 11.7625 187.099 12.5483C187.604 12.9143 188.012 13.4015 188.286 13.9663C188.56 14.531 188.692 15.1558 188.67 15.7848C188.712 16.611 188.492 17.4291 188.041 18.1193C187.578 18.7767 186.943 19.291 186.208 19.6049C187.14 19.9028 187.973 20.4532 188.617 21.1965V21.1965ZM178.195 18.809H182.385C183.433 18.809 184.166 18.6498 184.689 18.1723C184.962 17.9646 185.177 17.6898 185.314 17.374C185.452 17.0582 185.507 16.712 185.475 16.3684C185.49 16.019 185.427 15.6708 185.291 15.3494C185.155 15.028 184.949 14.7416 184.689 14.5114C184.01 14.0515 183.201 13.828 182.385 13.8747H178.195V18.809ZM186.365 23.5841C186.365 21.9393 185.266 21.0374 183.066 21.0374H178.195V26.1308H183.014C185.213 26.1838 186.365 25.2819 186.365 23.5841Z" fill="#005840"/>
<path d="M198.322 27.4873C196.933 26.777 195.78 25.7033 194.998 24.3899C194.179 23.0628 193.752 21.5455 193.764 20.0019C193.753 18.4745 194.17 16.9725 194.972 15.6548C195.774 14.337 196.932 13.2527 198.322 12.5165C199.787 11.7598 201.432 11.386 203.093 11.4324C204.749 11.4423 206.38 11.8129 207.865 12.5165C209.254 13.2268 210.406 14.3005 211.189 15.6139C212.008 16.941 212.434 18.4583 212.422 20.0019C212.441 21.5463 212.014 23.0654 211.189 24.3899C210.376 25.6804 209.231 26.7473 207.865 27.4873C206.383 28.2002 204.75 28.5714 203.093 28.5714C201.437 28.5714 199.803 28.2002 198.322 27.4873V27.4873ZM206.203 25.1126C207.105 24.6316 207.848 23.9161 208.348 23.0477C208.871 22.1111 209.147 21.0652 209.152 20.0019C209.16 18.9369 208.883 17.8879 208.348 16.9561C207.848 16.0877 207.105 15.3721 206.203 14.8912C205.23 14.3876 204.144 14.1217 203.04 14.1168C201.935 14.1161 200.847 14.3823 199.876 14.8912C198.975 15.3721 198.231 16.0877 197.732 16.9561C197.209 17.8927 196.933 18.9385 196.928 20.0019C196.919 21.0668 197.196 22.1159 197.732 23.0477C198.231 23.9161 198.975 24.6316 199.876 25.1126C200.849 25.6162 201.935 25.8821 203.04 25.887C204.149 25.8903 205.24 25.624 206.214 25.1126H206.203Z" fill="#005840"/>
<path d="M82.0299 11.4317C80.6969 11.3954 79.3741 11.6682 78.1702 12.2277C77.1315 12.7099 76.234 13.4399 75.5608 14.3502C74.9319 15.3556 74.6113 16.5157 74.6367 17.6933C74.6235 18.9029 74.9426 20.0939 75.5608 21.1424C76.2537 22.1081 77.2439 22.833 78.3876 23.2119L74.6367 28.5183H78.0614L81.9211 22.7874V21.1424H81.758C80.7158 21.205 79.6874 20.883 78.8769 20.2403C78.5322 19.8985 78.2628 19.4916 78.0852 19.0444C77.9076 18.5973 77.8255 18.1195 77.844 17.6402C77.8095 17.1545 77.8896 16.6676 78.078 16.2168C78.2665 15.7661 78.5584 15.3635 78.9312 15.0401C79.6379 14.4033 80.6708 14.138 82.0299 14.138H85.7808V28.5714H88.9882V11.4848L82.0299 11.4317V11.4317Z" fill="#005840"/>
<path d="M136.353 11.4285H133.482V28.5714H136.353V11.4285Z" fill="#005840"/>
<path d="M142.332 19.708L148.993 11.4285H145.163L139.223 18.8589V20.9287L145.163 28.5714H149.27L142.332 19.708Z" fill="#005840"/>
<path d="M37.3824 9.58572C35.499 6.53989 32.7772 4.0903 29.5368 2.52504C25.9321 0.79619 21.9673 -0.067425 17.9632 0.00410777H6.70951L10.3149 4.79227H18.3365C21.3735 4.72845 24.383 5.37484 27.1208 6.679C29.5635 7.90706 31.5997 9.80358 32.9876 12.1436C34.3378 14.5459 35.0465 17.25 35.0465 19.9997C35.0465 22.7494 34.3378 25.4535 32.9876 27.8558C31.5954 30.1635 29.5574 32.0214 27.1208 33.2041C24.383 34.5083 21.3735 35.1547 18.3365 35.0909H5.12547V4.79227L1.55738 0.00410777H0V39.9953H17.9632C21.97 40.0718 25.9386 39.2118 29.5475 37.485C32.7886 35.9233 35.511 33.4751 37.393 30.4295C39.2247 27.2541 40.1881 23.6599 40.1881 20.0023C40.1881 16.3448 39.2247 12.7506 37.393 9.57515L37.3824 9.58572Z" fill="#005840"/>
</g>
<defs>
<clipPath id="clip0_401_18578">
<rect width="369" height="40" fill="white"/>
</clipPath>
</defs>
</svg>
