<svg width="0" height="0" class="hidden">
    <symbol fill="none" xmlns="http://www.w3.org/2000/svg" viewBox="0 0 3 6" id="breadcrumb_arrow">
        <path d="M2.99992 3.33341L0.333252 6.00008V0.666748L2.99992 3.33341Z" fill="currentColor"></path>
    </symbol>
    <!--<symbol id="productlike" viewBox="0 0 21 18" xmlns="http://www.w3.org/2000/svg">
        <path d="M2.52613 2.49174C4.56097 0.502752 7.86009 0.502752 9.89493 2.49174L10 2.59445L10.1051 2.49174C12.1399 0.502752 15.439 0.502752 17.4739 2.49174C19.5087 4.48073 19.5087 7.70553 17.4739 9.69452L10 17L2.52613 9.69452C0.491291 7.70553 0.491291 4.48073 2.52613 2.49174Z" stroke-width="1.5"/>
    </symbol>-->
    <symbol fill="" xmlns="http://www.w3.org/2000/svg" viewBox="0 0 21 18" id="productlike">
        <path d="M5.98075 11.1683L5.96439 11.1592L5.91792 11.1332C5.88103 11.1123 5.83239 11.0845 5.77365 11.0501C5.65654 10.9815 5.49725 10.8856 5.30944 10.766C4.94061 10.5312 4.42955 10.1843 3.90081 9.75311C3.391 9.33734 2.75415 8.75438 2.2158 8.02665C1.7156 7.35049 1 6.14596 1 4.55673C1 2.5924 2.48477 1 4.31633 1C5.82443 1 7.09741 2.07962 7.5 3.55754C7.90259 2.07962 9.17557 1 10.6837 1C12.5152 1 14 2.5924 14 4.55673C14 6.14596 13.2844 7.35049 12.7842 8.02665C12.2459 8.75438 11.609 9.33734 11.0992 9.75311C10.5705 10.1843 10.0594 10.5312 9.69056 10.766C9.50275 10.8856 9.34346 10.9815 9.22635 11.0501C9.16761 11.0845 9.11897 11.1123 9.08208 11.1332L9.03561 11.1592L9.01926 11.1683L9.00767 11.1747L7.5 12L5.99233 11.1747L5.98075 11.1683Z" stroke-width="1.5" stroke-linejoin="round"></path>
    </symbol>
    <symbol fill="none" xmlns="http://www.w3.org/2000/svg" viewBox="0 0 17 16" id="compare-card">
        <path d="M3.17651 8.78947H4.28762V14H3.17651V8.78947ZM12.0654 6.47368H13.1765V14H12.0654V6.47368ZM7.62096 3H8.73207V14H7.62096V3Z" fill="currentColor"></path>
    </symbol>
    <symbol fill="none" xmlns="http://www.w3.org/2000/svg" viewBox="0 0 43 40" id="heart-big">
        <rect width="43" height="40" rx="4" fill="white"></rect>
        <path d="M30.3389 11.9688C31.4969 13.1266 32.1752 14.6788 32.2383 16.3152C32.3013 17.9515 31.7444 19.5513 30.6789 20.7948L30.6919 20.8078L30.3379 21.1608L28.9239 19.7458L29.0449 19.6258L29.1609 19.4918C29.872 18.6615 30.2566 17.6008 30.2428 16.5077C30.229 15.4145 29.8178 14.3638 29.0859 13.5518L28.9249 13.3828C28.1507 12.6086 27.1208 12.1431 26.0281 12.0737C24.9354 12.0043 23.8548 12.3357 22.9889 13.0058L22.8089 13.1538L21.4999 14.2838L20.1929 13.1538C19.3487 12.425 18.2638 12.0357 17.1488 12.0613C16.0338 12.087 14.9681 12.5258 14.1582 13.2926C13.3484 14.0595 12.8522 15.0998 12.7658 16.2117C12.6795 17.3237 13.0092 18.4281 13.6909 19.3108L13.8379 19.4908L13.9519 19.6248L22.9129 28.5858L21.4999 29.9998L12.3079 20.8078L12.3209 20.7948C11.2521 19.5504 10.6933 17.948 10.7566 16.3089C10.8198 14.6697 11.5005 13.1151 12.662 11.9569C13.8236 10.7986 15.3801 10.1223 17.0194 10.0637C18.6587 10.0051 20.2596 10.5685 21.5009 11.6408C22.7435 10.57 24.3451 10.0088 25.9843 10.0696C27.6235 10.1304 29.1791 10.8089 30.3389 11.9688ZM28.4999 21.9998V24.9998H31.4999V26.9998H28.4989L28.4999 29.9998H26.4999L26.4989 26.9998H23.4999V24.9998H26.4999V21.9998H28.4999Z" fill="currentColor"></path>
    </symbol>
    <symbol fill="none" xmlns="http://www.w3.org/2000/svg" viewBox="0 0 24 24" id="side-img-1">
        <path d="M9.95133 10.9749C10.6812 12.257 11.743 13.3188 13.0251 14.0487L13.7127 13.0858C13.8232 12.9309 13.9867 12.822 14.1722 12.7796C14.3576 12.7372 14.5522 12.7642 14.7191 12.8556C15.8191 13.4567 17.0339 13.8183 18.2837 13.9164C18.4787 13.9319 18.6608 14.0203 18.7935 14.164C18.9263 14.3077 19 14.4962 19 14.6919V18.1623C19 18.3549 18.9286 18.5406 18.7996 18.6836C18.6706 18.8266 18.4931 18.9166 18.3016 18.9362C17.8893 18.979 17.474 19 17.0556 19C10.3978 19 5 13.6022 5 6.94444C5 6.526 5.021 6.11067 5.06378 5.69844C5.08342 5.50688 5.17343 5.3294 5.31639 5.20038C5.45935 5.07136 5.64509 4.99996 5.83767 5H9.30811C9.50377 4.99998 9.69225 5.0737 9.83597 5.20646C9.9797 5.33923 10.0681 5.52128 10.0836 5.71633C10.1817 6.96606 10.5433 8.18086 11.1444 9.28089C11.2358 9.44777 11.2628 9.64235 11.2204 9.82782C11.178 10.0133 11.0691 10.1768 10.9142 10.2873L9.95133 10.9749ZM7.98978 10.4639L9.46756 9.40844C9.04816 8.50318 8.76083 7.54243 8.61433 6.55556H6.56333C6.55867 6.68467 6.55633 6.81456 6.55633 6.94444C6.55556 12.7436 11.2564 17.4444 17.0556 17.4444C17.1854 17.4444 17.3153 17.4421 17.4444 17.4367V15.3857C16.4576 15.2392 15.4968 14.9518 14.5916 14.5324L13.5361 16.0102C13.1112 15.8451 12.6984 15.6502 12.301 15.4269L12.2559 15.4012C10.7303 14.533 9.467 13.2697 8.59878 11.7441L8.57311 11.699C8.34982 11.3016 8.15489 10.8888 7.98978 10.4639Z" fill="currentColor"></path>
    </symbol>
    <symbol fill="none" xmlns="http://www.w3.org/2000/svg" viewBox="0 0 24 24" id="side-img-2">
        <mask id="path-1-inside-1_2_1262" fill="currentColor">
            <path fill-rule="evenodd" clip-rule="evenodd" d="M11.5 20C11.5 20 18 15 18 10.5C18 6.91015 15.0899 4 11.5 4C7.91015 4 5 6.91015 5 10.5C5 15 11.5 20 11.5 20ZM11.5 12C12.3284 12 13 11.3284 13 10.5C13 9.67157 12.3284 9 11.5 9C10.6716 9 10 9.67157 10 10.5C10 11.3284 10.6716 12 11.5 12Z"></path>
        </mask>
        <path d="M11.5 20L10.5854 21.1889L11.5 21.8924L12.4146 21.1889L11.5 20ZM16.5 10.5C16.5 11.2762 16.2142 12.1763 15.6718 13.1567C15.1355 14.1262 14.4008 15.08 13.6331 15.9362C12.8696 16.7878 12.1012 17.5123 11.5218 18.0249C11.2331 18.2803 10.9939 18.4808 10.8291 18.6157C10.7468 18.6831 10.6832 18.734 10.6415 18.767C10.6206 18.7836 10.6053 18.7956 10.5958 18.803C10.5911 18.8067 10.5878 18.8092 10.5861 18.8106C10.5852 18.8113 10.5847 18.8116 10.5846 18.8117C10.5845 18.8118 10.5846 18.8117 10.5847 18.8116C10.5848 18.8116 10.585 18.8114 10.585 18.8114C10.5852 18.8112 10.5854 18.8111 11.5 20C12.4146 21.1889 12.4148 21.1887 12.4151 21.1885C12.4153 21.1884 12.4156 21.1881 12.4159 21.1879C12.4164 21.1875 12.417 21.187 12.4178 21.1865C12.4193 21.1853 12.4211 21.1839 12.4234 21.1821C12.4279 21.1786 12.4339 21.1739 12.4415 21.168C12.4566 21.1562 12.4778 21.1397 12.5045 21.1185C12.558 21.076 12.6341 21.0151 12.7295 20.937C12.9202 20.7809 13.1888 20.5556 13.5095 20.2719C14.1488 19.7064 15.0054 18.8997 15.8669 17.9388C16.7242 16.9825 17.6145 15.8426 18.2969 14.6089C18.9733 13.3862 19.5 11.9738 19.5 10.5H16.5ZM11.5 5.5C14.2614 5.5 16.5 7.73858 16.5 10.5H19.5C19.5 6.08172 15.9183 2.5 11.5 2.5V5.5ZM6.5 10.5C6.5 7.73858 8.73858 5.5 11.5 5.5V2.5C7.08172 2.5 3.5 6.08172 3.5 10.5H6.5ZM11.5 20C12.4146 18.8111 12.4148 18.8112 12.415 18.8114C12.415 18.8114 12.4152 18.8116 12.4153 18.8116C12.4154 18.8117 12.4155 18.8118 12.4154 18.8117C12.4153 18.8116 12.4148 18.8113 12.4139 18.8106C12.4122 18.8092 12.4089 18.8067 12.4042 18.803C12.3947 18.7956 12.3794 18.7836 12.3585 18.767C12.3168 18.734 12.2532 18.6831 12.1709 18.6157C12.0061 18.4808 11.7669 18.2803 11.4782 18.0249C10.8988 17.5123 10.1304 16.7878 9.36685 15.9362C8.5992 15.08 7.86447 14.1262 7.32818 13.1567C6.78583 12.1763 6.5 11.2762 6.5 10.5H3.5C3.5 11.9738 4.02667 13.3862 4.70307 14.6089C5.38553 15.8426 6.2758 16.9825 7.13315 17.9388C7.99461 18.8997 8.85124 19.7064 9.49051 20.2719C9.8112 20.5556 10.0798 20.7809 10.2705 20.937C10.3659 21.0151 10.442 21.076 10.4955 21.1185C10.5222 21.1397 10.5434 21.1562 10.5585 21.168C10.5661 21.1739 10.5721 21.1786 10.5766 21.1821C10.5789 21.1839 10.5807 21.1853 10.5822 21.1865C10.583 21.187 10.5836 21.1875 10.5841 21.1879C10.5844 21.1881 10.5847 21.1884 10.5849 21.1885C10.5852 21.1887 10.5854 21.1889 11.5 20ZM11.5 10.5V13.5C13.1569 13.5 14.5 12.1569 14.5 10.5H11.5ZM11.5 10.5H14.5C14.5 8.84315 13.1569 7.5 11.5 7.5V10.5ZM11.5 10.5V7.5C9.84315 7.5 8.5 8.84315 8.5 10.5H11.5ZM11.5 10.5H8.5C8.5 12.1569 9.84315 13.5 11.5 13.5V10.5Z" fill="currentColor" mask="url(#path-1-inside-1_2_1262)"></path>
    </symbol>
    <symbol fill="none" xmlns="http://www.w3.org/2000/svg" viewBox="0 0 24 24" id="side-img-3">
        <path d="M5.00002 8.8L9.66901 4H18.2207C18.65 4 19 4.364 19 4.7936V19.2064C18.9998 19.4169 18.9183 19.6188 18.7735 19.7676C18.6287 19.9164 18.4324 20 18.2277 20H5.77235C5.67021 19.9993 5.56921 19.9778 5.47512 19.937C5.38103 19.8961 5.29569 19.8365 5.22397 19.7617C5.15225 19.6869 5.09556 19.5983 5.05714 19.501C5.01871 19.4036 4.9993 19.2995 5.00002 19.1944V8.8ZM10.4445 5.6V9.6H6.55557V18.4H17.4444V5.6H10.4445Z" fill="currentColor"></path>
    </symbol>
    <symbol fill="none" xmlns="http://www.w3.org/2000/svg" viewBox="0 0 24 24" id="side-img-4">
        <rect x="4.75" y="3.75" width="14.5" height="16.5" rx="1.25" stroke="currentColor" stroke-width="1.5"></rect>
        <mask id="path-2-inside-1_2_1250" fill="white">
            <rect x="7" y="6" width="10" height="4" rx="1"></rect>
        </mask>
        <rect x="7" y="6" width="10" height="4" rx="1" stroke="currentColor" stroke-width="1" mask="url(#path-2-inside-1_2_1250)"></rect>
        <rect x="11" y="16" width="2" height="2" rx="1" fill="currentColor"></rect>
        <rect x="7" y="16" width="2" height="2" rx="1" fill="currentColor"></rect>
        <rect x="11" y="12" width="2" height="2" rx="1" fill="currentColor"></rect>
        <rect x="7" y="12" width="2" height="2" rx="1" fill="currentColor"></rect>
    </symbol>
    <symbol fill="none" xmlns="http://www.w3.org/2000/svg" viewBox="0 0 24 24" id="side-img-5">
        <path d="M17.4138 16H6C5.44772 16 5 15.5523 5 15V12.2963M5 12.2963V7C5 6.44772 5.44772 6 6 6H18.5082C19.2196 6 19.7035 6.72188 19.4332 7.37995L17.6685 11.6762C17.5144 12.0514 17.149 12.2963 16.7435 12.2963H5Z" stroke="currentColor" stroke-width="1.7" stroke-linecap="round"></path>
        <circle cx="6.5" cy="19.5" r="1" fill="white" stroke="currentColor"></circle>
        <circle cx="14.5" cy="19.5" r="1" fill="white" stroke="currentColor"></circle>
        <path d="M4 3L5 6" stroke="currentColor" stroke-width="1.7" stroke-linecap="round"></path>
    </symbol>
    <symbol fill="none" xmlns="http://www.w3.org/2000/svg" viewBox="0 0 24 24" id="side-img-6">
        <path d="M12.7794 16.0177L9.46429 14.186C9.03148 14.6548 8.4695 14.9808 7.8514 15.1218C7.23329 15.2627 6.58763 15.212 5.99832 14.9763C5.40902 14.7406 4.90332 14.3308 4.54694 13.8001C4.19057 13.2693 4 12.6423 4 12.0004C4 11.3585 4.19057 10.7315 4.54694 10.2007C4.90332 9.67003 5.40902 9.26018 5.99832 9.02447C6.58763 8.78875 7.23329 8.73807 7.8514 8.87901C8.4695 9.01995 9.03148 9.34599 9.46429 9.81476L12.7802 7.98307C12.5919 7.22806 12.6819 6.4294 13.0333 5.73681C13.3847 5.04421 13.9734 4.50524 14.6889 4.2209C15.4045 3.93656 16.1979 3.92639 16.9203 4.19229C17.6427 4.45819 18.2447 4.9819 18.6132 5.66527C18.9818 6.34863 19.0917 7.14472 18.9224 7.90432C18.7531 8.66392 18.3161 9.33487 17.6934 9.79142C17.0707 10.248 16.3051 10.4587 15.54 10.3843C14.7748 10.3098 14.0628 9.95515 13.5373 9.38684L10.2214 11.2185C10.3487 11.7315 10.3487 12.2685 10.2214 12.7815L13.5365 14.6132C14.062 14.0449 14.7741 13.6902 15.5392 13.6157C16.3043 13.5413 17.0699 13.752 17.6926 14.2086C18.3153 14.6651 18.7523 15.3361 18.9216 16.0957C19.091 16.8553 18.981 17.6514 18.6125 18.3347C18.2439 19.0181 17.642 19.5418 16.9195 19.8077C16.1971 20.0736 15.4037 20.0634 14.6881 19.7791C13.9726 19.4948 13.3839 18.9558 13.0325 18.2632C12.6811 17.5706 12.5911 16.7719 12.7794 16.0169V16.0177ZM7.15816 13.5997C7.57694 13.5997 7.97856 13.4312 8.27468 13.1312C8.5708 12.8312 8.73716 12.4243 8.73716 12C8.73716 11.5757 8.5708 11.1688 8.27468 10.8688C7.97856 10.5688 7.57694 10.4003 7.15816 10.4003C6.73938 10.4003 6.33776 10.5688 6.04164 10.8688C5.74552 11.1688 5.57916 11.5757 5.57916 12C5.57916 12.4243 5.74552 12.8312 6.04164 13.1312C6.33776 13.4312 6.73938 13.5997 7.15816 13.5997ZM15.8426 8.80053C16.2614 8.80053 16.663 8.63199 16.9592 8.33198C17.2553 8.03197 17.4216 7.62508 17.4216 7.2008C17.4216 6.77653 17.2553 6.36963 16.9592 6.06962C16.663 5.76961 16.2614 5.60107 15.8426 5.60107C15.4239 5.60107 15.0222 5.76961 14.7261 6.06962C14.43 6.36963 14.2636 6.77653 14.2636 7.2008C14.2636 7.62508 14.43 8.03197 14.7261 8.33198C15.0222 8.63199 15.4239 8.80053 15.8426 8.80053ZM15.8426 18.3989C16.2614 18.3989 16.663 18.2304 16.9592 17.9304C17.2553 17.6304 17.4216 17.2235 17.4216 16.7992C17.4216 16.3749 17.2553 15.968 16.9592 15.668C16.663 15.368 16.2614 15.1995 15.8426 15.1995C15.4239 15.1995 15.0222 15.368 14.7261 15.668C14.43 15.968 14.2636 16.3749 14.2636 16.7992C14.2636 17.2235 14.43 17.6304 14.7261 17.9304C15.0222 18.2304 15.4239 18.3989 15.8426 18.3989Z" fill="currentColor"></path>
    </symbol>
    <symbol fill="none" xmlns="http://www.w3.org/2000/svg" viewBox="0 0 24 24" id="side-icon-1">
        <path d="M17.3242 8.24625C17.271 8.02275 17.1198 7.854 16.9469 7.80225C16.641 7.71 15.15 7.5 12 7.5C8.85 7.5 7.3604 7.71 7.0517 7.80225C6.8809 7.85325 6.7297 8.022 6.6758 8.24625C6.5995 8.56425 6.4 9.897 6.4 12C6.4 14.103 6.5995 15.435 6.6758 15.7545C6.729 15.9773 6.8802 16.146 7.0524 16.197C7.3604 16.29 8.85 16.5 12 16.5C15.15 16.5 16.6403 16.29 16.9483 16.1978C17.1191 16.1468 17.2703 15.978 17.3242 15.7537C17.4005 15.4357 17.6 14.1 17.6 12C17.6 9.9 17.4005 8.565 17.3242 8.24625ZM18.6801 7.8735C19 9.21 19 12 19 12C19 12 19 14.79 18.6801 16.1265C18.5023 16.8653 17.9822 17.4465 17.3235 17.643C16.1272 18 12 18 12 18C12 18 7.8749 18 6.6765 17.643C6.015 17.4435 5.4956 16.863 5.3199 16.1265C5 14.79 5 12 5 12C5 12 5 9.21 5.3199 7.8735C5.4977 7.13475 6.0178 6.5535 6.6765 6.357C7.8749 6 12 6 12 6C12 6 16.1272 6 17.3235 6.357C17.985 6.5565 18.5044 7.137 18.6801 7.8735ZM10.6 14.625V9.375L14.8 12L10.6 14.625Z" fill="#1F1F1F"></path>
    </symbol>
    <symbol fill="none" xmlns="http://www.w3.org/2000/svg" viewBox="0 0 24 24" id="side-icon-2">
        <path d="M12.7 17.5566C14.1121 17.3769 15.4028 16.6663 16.3098 15.5691C17.2167 14.472 17.6719 13.0707 17.5828 11.65C17.4936 10.2293 16.8669 8.89584 15.8299 7.92067C14.7929 6.94549 13.4235 6.40176 12 6.4C10.5748 6.39894 9.20276 6.94134 8.16354 7.91667C7.12431 8.89201 6.49607 10.2269 6.40682 11.6493C6.31757 13.0718 6.77404 14.4747 7.6832 15.5723C8.59237 16.6699 9.88582 17.3795 11.3 17.5566V13.4H9.9V12H11.3V10.8422C11.3 9.9063 11.398 9.5668 11.58 9.2245C11.7593 8.88583 12.0364 8.60898 12.3752 8.43C12.6426 8.2865 12.9751 8.2004 13.5561 8.1633C13.7864 8.1486 14.0846 8.1668 14.4507 8.2193V9.5493H14.1C13.4581 9.5493 13.1928 9.5794 13.0346 9.6641C12.9402 9.71265 12.8633 9.7895 12.8148 9.8839C12.7308 10.0421 12.7 10.1989 12.7 10.8415V12H14.45L14.1 13.4H12.7V17.5566ZM12 19C8.1339 19 5 15.8661 5 12C5 8.1339 8.1339 5 12 5C15.8661 5 19 8.1339 19 12C19 15.8661 15.8661 19 12 19Z" fill="#1F1F1F"></path>
    </symbol>
    <symbol fill="none" xmlns="http://www.w3.org/2000/svg" viewBox="0 0 24 24" id="side-icon-3">
        <path d="M12 9.9C11.443 9.9 10.9089 10.1212 10.5151 10.5151C10.1212 10.9089 9.9 11.443 9.9 12C9.9 12.557 10.1212 13.0911 10.5151 13.4849C10.9089 13.8788 11.443 14.1 12 14.1C12.557 14.1 13.0911 13.8788 13.4849 13.4849C13.8788 13.0911 14.1 12.557 14.1 12C14.1 11.443 13.8788 10.9089 13.4849 10.5151C13.0911 10.1212 12.557 9.9 12 9.9ZM12 8.5C12.9283 8.5 13.8185 8.86875 14.4749 9.52513C15.1313 10.1815 15.5 11.0717 15.5 12C15.5 12.9283 15.1313 13.8185 14.4749 14.4749C13.8185 15.1313 12.9283 15.5 12 15.5C11.0717 15.5 10.1815 15.1313 9.52513 14.4749C8.86875 13.8185 8.5 12.9283 8.5 12C8.5 11.0717 8.86875 10.1815 9.52513 9.52513C10.1815 8.86875 11.0717 8.5 12 8.5ZM16.55 8.325C16.55 8.55706 16.4578 8.77962 16.2937 8.94372C16.1296 9.10781 15.9071 9.2 15.675 9.2C15.4429 9.2 15.2204 9.10781 15.0563 8.94372C14.8922 8.77962 14.8 8.55706 14.8 8.325C14.8 8.09294 14.8922 7.87038 15.0563 7.70628C15.2204 7.54219 15.4429 7.45 15.675 7.45C15.9071 7.45 16.1296 7.54219 16.2937 7.70628C16.4578 7.87038 16.55 8.09294 16.55 8.325ZM12 6.4C10.2682 6.4 9.9854 6.4049 9.1797 6.4406C8.6309 6.4665 8.2627 6.54 7.9211 6.673C7.6173 6.7906 7.3982 6.9313 7.1651 7.1651C6.946 7.37678 6.77755 7.63521 6.6723 7.9211C6.5393 8.2641 6.4658 8.6316 6.4406 9.1797C6.4042 9.9525 6.4 10.2227 6.4 12C6.4 13.7318 6.4049 14.0146 6.4406 14.8203C6.4665 15.3684 6.54 15.7373 6.6723 16.0782C6.7913 16.3827 6.9313 16.6018 7.1637 16.8342C7.3996 17.0694 7.6187 17.2101 7.9197 17.3263C8.2655 17.46 8.6337 17.5342 9.1797 17.5594C9.9525 17.5958 10.2227 17.6 12 17.6C13.7318 17.6 14.0146 17.5951 14.8203 17.5594C15.3677 17.5335 15.7366 17.46 16.0782 17.3277C16.3813 17.2094 16.6018 17.0687 16.8342 16.8363C17.0701 16.6004 17.2108 16.3813 17.327 16.0803C17.46 15.7352 17.5342 15.3663 17.5594 14.8203C17.5958 14.0475 17.6 13.7773 17.6 12C17.6 10.2682 17.5951 9.9854 17.5594 9.1797C17.5335 8.6323 17.46 8.2627 17.327 7.9211C17.2215 7.6355 17.0534 7.37717 16.8349 7.1651C16.6233 6.94589 16.3649 6.77742 16.0789 6.6723C15.7359 6.5393 15.3677 6.4658 14.8203 6.4406C14.0475 6.4042 13.7773 6.4 12 6.4ZM12 5C13.9019 5 14.1392 5.007 14.8854 5.042C15.6309 5.077 16.1384 5.1939 16.585 5.3675C17.047 5.5453 17.4362 5.7861 17.8254 6.1746C18.1813 6.52453 18.4568 6.94781 18.6325 7.415C18.8054 7.8609 18.923 8.3691 18.958 9.1146C18.9909 9.8608 19 10.0981 19 12C19 13.9019 18.993 14.1392 18.958 14.8854C18.923 15.6309 18.8054 16.1384 18.6325 16.585C18.4573 17.0524 18.1818 17.4758 17.8254 17.8254C17.4754 18.1812 17.0521 18.4566 16.585 18.6325C16.1391 18.8054 15.6309 18.923 14.8854 18.958C14.1392 18.9909 13.9019 19 12 19C10.0981 19 9.8608 18.993 9.1146 18.958C8.3691 18.923 7.8616 18.8054 7.415 18.6325C6.94763 18.4571 6.52427 18.1817 6.1746 17.8254C5.81858 17.4755 5.54315 17.0522 5.3675 16.585C5.1939 16.1391 5.077 15.6309 5.042 14.8854C5.0091 14.1392 5 13.9019 5 12C5 10.0981 5.007 9.8608 5.042 9.1146C5.077 8.3684 5.1939 7.8616 5.3675 7.415C5.54267 6.94753 5.81816 6.52412 6.1746 6.1746C6.52437 5.81846 6.9477 5.54301 7.415 5.3675C7.8616 5.1939 8.3684 5.077 9.1146 5.042C9.8608 5.0091 10.0981 5 12 5Z" fill="#1F1F1F"></path>
    </symbol>
    <symbol fill="none" xmlns="http://www.w3.org/2000/svg" viewBox="0 0 24 24" id="side-icon-4">
        <mask id="path-1-inside-1_0_10045" fill="white">
            <path d="M5 11.7083C5 8.5462 5 6.96467 5.98233 5.98233C6.96467 5 8.54667 5 11.7083 5H12.2917C15.4538 5 17.0353 5 18.0177 5.98233C19 6.96467 19 8.54667 19 11.7083V12.2917C19 15.4538 19 17.0353 18.0177 18.0177C17.0353 19 15.4533 19 12.2917 19H11.7083C8.5462 19 6.96467 19 5.98233 18.0177C5 17.0353 5 15.4533 5 12.2917V11.7083Z"></path>
        </mask>
        <path d="M6.5 11.7083C6.5 10.0849 6.50318 9.01803 6.60942 8.22775C6.70986 7.48055 6.87703 7.20895 7.04299 7.04299L4.92167 4.92167C4.1053 5.73805 3.7813 6.74838 3.63616 7.82806C3.49682 8.86467 3.5 10.1697 3.5 11.7083H6.5ZM7.04299 7.04299C7.20891 6.87708 7.48058 6.70988 8.22791 6.60942C9.01826 6.50318 10.0851 6.5 11.7083 6.5V3.5C10.1699 3.5 8.86491 3.49682 7.82825 3.63616C6.74859 3.78129 5.73809 4.10526 4.92167 4.92167L7.04299 7.04299ZM11.7083 6.5H12.2917V3.5H11.7083V6.5ZM12.2917 6.5C13.9151 6.5 14.982 6.50318 15.7722 6.60942C16.5194 6.70986 16.791 6.87703 16.957 7.04299L19.0783 4.92167C18.262 4.1053 17.2516 3.7813 16.1719 3.63616C15.1353 3.49682 13.8303 3.5 12.2917 3.5V6.5ZM16.957 7.04299C17.1229 7.20891 17.2901 7.48058 17.3906 8.22791C17.4968 9.01826 17.5 10.0851 17.5 11.7083H20.5C20.5 10.1699 20.5032 8.86491 20.3638 7.82825C20.2187 6.74859 19.8947 5.73809 19.0783 4.92167L16.957 7.04299ZM17.5 11.7083V12.2917H20.5V11.7083H17.5ZM17.5 12.2917C17.5 13.9151 17.4968 14.982 17.3906 15.7722C17.2901 16.5194 17.123 16.791 16.957 16.957L19.0783 19.0783C19.8947 18.262 20.2187 17.2516 20.3638 16.1719C20.5032 15.1353 20.5 13.8303 20.5 12.2917H17.5ZM16.957 16.957C16.7911 17.1229 16.5194 17.2901 15.7721 17.3906C14.9817 17.4968 13.9149 17.5 12.2917 17.5V20.5C13.8301 20.5 15.1351 20.5032 16.1717 20.3638C17.2514 20.2187 18.2619 19.8947 19.0783 19.0783L16.957 16.957ZM12.2917 17.5H11.7083V20.5H12.2917V17.5ZM11.7083 17.5C10.0849 17.5 9.01803 17.4968 8.22775 17.3906C7.48055 17.2901 7.20895 17.123 7.04299 16.957L4.92167 19.0783C5.73805 19.8947 6.74838 20.2187 7.82806 20.3638C8.86467 20.5032 10.1697 20.5 11.7083 20.5V17.5ZM7.04299 16.957C6.87708 16.7911 6.70988 16.5194 6.60942 15.7721C6.50318 14.9817 6.5 13.9149 6.5 12.2917H3.5C3.5 13.8301 3.49682 15.1351 3.63616 16.1717C3.78129 17.2514 4.10526 18.2619 4.92167 19.0783L7.04299 16.957ZM6.5 12.2917V11.7083H3.5V12.2917H6.5Z" fill="#1F1F1F" mask="url(#path-1-inside-1_0_10045)"></path>
        <path fill-rule="evenodd" clip-rule="evenodd" d="M8.46887 10H7.3751C7.06252 10 7 10.1238 7 10.2606C7 10.5044 7.37059 11.7145 8.72694 13.3145C9.63067 14.4076 10.9045 15 12.0633 15C12.759 15 12.845 14.8682 12.845 14.6421V13.816C12.845 13.5528 12.911 13.5002 13.1311 13.5002C13.2936 13.5002 13.5712 13.5684 14.2208 14.0952C14.9625 14.72 15.0846 15 15.5017 15H16.5959C16.9085 15 17.0651 14.8682 16.9745 14.6084C16.876 14.3499 16.5219 13.9743 16.0518 13.5293C15.7967 13.2758 15.4146 13.0025 15.2986 12.8657C15.1361 12.6901 15.1826 12.6122 15.2986 12.456C15.2986 12.456 16.6314 10.8754 16.7705 10.3385C16.8405 10.1436 16.7705 10 16.4394 10H15.3456C15.0676 10 14.939 10.1238 14.8695 10.2606C14.8695 10.2606 14.3134 11.4021 13.5252 12.1436C13.2701 12.3583 13.1541 12.4269 13.015 12.4269C12.9455 12.4269 12.845 12.3583 12.845 12.1634V10.3385C12.845 10.1044 12.7645 10 12.5324 10H10.813C10.6394 10 10.5349 10.1086 10.5349 10.2118C10.5349 10.4337 10.929 10.4851 10.9695 11.1095V12.4657C10.9695 12.7634 10.906 12.8173 10.7665 12.8173C10.3959 12.8173 9.49363 11.6703 8.9585 10.3583C8.85347 10.1032 8.74844 10 8.46887 10Z" fill="#1F1F1F"></path>
    </symbol>
    <symbol fill="none" xmlns="http://www.w3.org/2000/svg" viewBox="0 0 24 24" id="menu-arrow">
        <path d="M8.3495 11.1L13.043 6.27256L11.8058 5L5 12L11.8058 19L13.043 17.7274L8.3495 12.9H19V11.1H8.3495Z" fill="#1F1F1F"></path>
    </symbol>
</svg>
